# xmcd
#
# Track frame offsets:
#	150
#	16144
#	33508
#	50327
#	70303
#	87570
#	107173
#	126402
#	146001
#	162078
#	176659
#	191471
#	212722
#	229820
#
# Disc length: 3315
#
# Revision: 1
# Processed by: cddbd v1.5.1PL0 Copyright (c) Steve Scherf et al.
# Submitted via: FreeRIP 2.60 
# Normalized: r0:TRMNUM
#
DISCID=c60cf10e
DTITLE=Young Buck - Straight Outta Ca$hville (clean)
DYEAR=2004
DGENRE=Rap
TTITLE0=Im_A_Soldier_(feat._50_Cent).mp3
TTITLE1=Do_It_Like_Me.mp3
TTITLE2=Let_Me_In.mp3
TTITLE3=Look_At_Me_Now_(feat._Mr._Porter).mp3
TTITLE4=Welcome_To_The_South_(feat._Lil_Flip_&_David_Banner).mp3
TTITLE5=Prices_On_My_Head_(feat._Lloyd_Banks_&_D-Tay).mp3
TTITLE6=Bonafide_Hustler_(feat._50_Cent_&_Tony_Yayo).mp3
TTITLE7=Shorty_Wanna_Ride.mp3
TTITLE8=Bang_Bang.mp3
TTITLE9=Thou_Shall.mp3
TTITLE10=Black_Gloves.mp3
TTITLE11=Stomp_(feat._T.I._&_Ludacris).mp3
TTITLE12=Taking_Hits_(feat._D-tay).mp3
TTITLE13=Walk_With_Me_(feat._Stat_Qou).mp3
EXTD=titles by nedlwrek
EXTT0=
EXTT1=
EXTT2=
EXTT3=
EXTT4=
EXTT5=
EXTT6=
EXTT7=
EXTT8=
EXTT9=
EXTT10=
EXTT11=
EXTT12=
EXTT13=
PLAYORDER=
